<svg xmlns="http://www.w3.org/2000/svg" xmlns:xlink="http://www.w3.org/1999/xlink" width="386" height="50" viewBox="0 0 386 50"><defs><clipPath id="b"><rect width="386" height="50"/></clipPath></defs><g id="a" clip-path="url(#b)"><g transform="translate(-79.296 -259.864)"><g transform="translate(87.296 266.864)"><path d="M123.616,266.926a1.568,1.568,0,0,1,1.382.836L131.15,279.3a1.612,1.612,0,0,1-.277,1.892L110.423,301.7a1.555,1.555,0,0,1-2.2.01l-.01-.01-20.45-20.512a1.612,1.612,0,0,1-.277-1.893l6.152-11.532a1.568,1.568,0,0,1,1.382-.836Zm-13.17,4.065L100.61,285.15a.464.464,0,0,0,.109.641.449.449,0,0,0,.263.084l7.671-.028a.456.456,0,0,1,.454.458h0a.448.448,0,0,1,0,.057l-1.066,8.925a.458.458,0,0,0,.4.512.451.451,0,0,0,.433-.2l9.237-14.209a.464.464,0,0,0-.128-.637.446.446,0,0,0-.251-.076l-7.314.019a.456.456,0,0,1-.454-.458h0a.441.441,0,0,1,0-.069l1.3-8.841a.459.459,0,0,0-.381-.523A.451.451,0,0,0,110.446,270.991Z" transform="translate(-87.296 -266.888)" fill="#2a9cff"/><g transform="translate(48.753)"><path d="M175.069,288.082c.568,1.838,2.144,2.757,4.331,2.757,2.144,0,3.632-.919,3.632-2.582,0-1.269-.831-1.838-2.537-2.231l-5.164-1.094c-3.938-.875-6.913-2.932-6.913-7.482,0-5.251,4.376-8.708,10.327-8.708,6.564,0,10.283,3.588,11.027,8.226H182.9a4,4,0,0,0-4.113-2.625c-2.013,0-3.369.876-3.369,2.363,0,1.181.831,1.838,2.231,2.144l5.251,1.225c4.594,1.094,7.133,3.588,7.133,7.745,0,5.514-4.638,8.664-10.5,8.664-6.432,0-10.808-3.106-11.771-8.4Z" transform="translate(-167.761 -267.604)" fill="#fff"/><path d="M225.8,301h-6.87v-1.706a7.035,7.035,0,0,1-5.251,2.144c-4.332,0-6.914-2.844-6.914-7.22V281.308h6.827V292.6c0,1.663.788,2.844,2.537,2.844a2.88,2.88,0,0,0,2.8-2.188V281.308h6.87Z" transform="translate(-183.131 -272.557)" fill="#fff"/><path d="M248.8,307.672h-6.87V281.023h6.87V282.6a6.849,6.849,0,0,1,4.857-2.013c5.688,0,8.8,4.638,8.8,10.283,0,5.6-3.107,10.282-8.8,10.282a6.849,6.849,0,0,1-4.857-2.013Zm0-14.221a3.349,3.349,0,0,0,3.019,1.838c2.364,0,3.763-1.881,3.763-4.419s-1.4-4.464-3.763-4.464a3.377,3.377,0,0,0-3.019,1.838Z" transform="translate(-196.994 -272.272)" fill="#fff"/><path d="M295.781,293.845c-.7,4.55-4.113,7.307-9.233,7.307-6.038,0-10.02-4.157-10.02-10.282,0-6.082,4.2-10.283,9.889-10.283,6.038,0,9.451,4.026,9.451,9.889v1.706H283.135c.219,2.363,1.444,3.632,3.413,3.632a2.728,2.728,0,0,0,2.888-1.969Zm-12.515-5.076h5.951a2.749,2.749,0,0,0-2.8-2.844C284.8,285.924,283.7,286.931,283.267,288.768Z" transform="translate(-210.628 -272.272)" fill="#fff"/><path d="M323.687,287.543a5.923,5.923,0,0,0-2.845-.613c-1.881,0-3.151.831-3.5,2.231v11.552h-6.87V281.023h6.87v1.75a5.37,5.37,0,0,1,4.463-2.188,4.289,4.289,0,0,1,1.882.35Z" transform="translate(-224.005 -272.272)" fill="#fff"/><path d="M334.522,266.864h6.87v10.458a7.139,7.139,0,0,1,5.294-2.144c4.376,0,6.957,2.844,6.957,7.22v12.908h-6.826V284.061c0-1.619-.831-2.8-2.582-2.8a2.82,2.82,0,0,0-2.844,2.145v11.9h-6.87Z" transform="translate(-233.484 -266.864)" fill="#fff"/><path d="M387.214,293.845c-.7,4.55-4.113,7.307-9.233,7.307-6.038,0-10.021-4.157-10.021-10.282,0-6.082,4.2-10.283,9.89-10.283,6.038,0,9.451,4.026,9.451,9.889v1.706H374.568c.219,2.363,1.444,3.632,3.413,3.632a2.728,2.728,0,0,0,2.888-1.969ZM374.7,288.768h5.952a2.749,2.749,0,0,0-2.8-2.844C376.23,285.924,375.136,286.931,374.7,288.768Z" transform="translate(-246.662 -272.272)" fill="#fff"/><path d="M415.119,287.543a5.921,5.921,0,0,0-2.844-.613c-1.881,0-3.151.831-3.5,2.231v11.552h-6.87V281.023h6.87v1.75a5.37,5.37,0,0,1,4.463-2.188,4.288,4.288,0,0,1,1.881.35Z" transform="translate(-260.041 -272.272)" fill="#fff"/><path d="M433.852,301.152c-5.95,0-10.064-4.2-10.064-10.282s4.113-10.283,10.064-10.283c5.995,0,10.064,4.2,10.064,10.283S439.846,301.152,433.852,301.152Zm0-14.921c-2.1,0-3.281,1.926-3.281,4.639s1.181,4.594,3.281,4.594c2.144,0,3.326-1.882,3.326-4.594S436,286.23,433.852,286.23Z" transform="translate(-268.665 -272.272)" fill="#fff"/><path d="M459.81,304.807a2.833,2.833,0,1,1-2.788,2.817A2.774,2.774,0,0,1,459.81,304.807Z" transform="translate(-281.763 -281.818)" fill="#fff"/><path d="M476.854,280.586c5.294,0,8.576,3.151,9.145,7.745h-6.651a2.374,2.374,0,0,0-2.494-2.056c-1.926,0-3.151,1.794-3.151,4.594s1.225,4.55,3.151,4.55a2.341,2.341,0,0,0,2.494-2.012H486c-.57,4.55-3.851,7.744-9.145,7.744-5.907,0-9.934-4.2-9.934-10.282S470.946,280.586,476.854,280.586Z" transform="translate(-285.664 -272.272)" fill="#fff"/><path d="M508.906,301.152c-5.951,0-10.064-4.2-10.064-10.282s4.113-10.283,10.064-10.283c5.995,0,10.064,4.2,10.064,10.283S514.9,301.152,508.906,301.152Zm0-14.921c-2.1,0-3.281,1.926-3.281,4.639s1.182,4.594,3.281,4.594c2.144,0,3.326-1.882,3.326-4.594S511.051,286.23,508.906,286.23Z" transform="translate(-298.245 -272.272)" fill="#fff"/><path d="M557.613,280.586c4.113,0,6.651,2.8,6.651,7.22v12.908h-6.87V289.469c0-1.663-.7-2.845-2.231-2.845a2.588,2.588,0,0,0-2.539,2.1v11.989H545.8V289.469c0-1.663-.7-2.845-2.232-2.845a2.553,2.553,0,0,0-2.537,2.1v11.989h-6.87V281.023h6.87v1.619a6.582,6.582,0,0,1,5.075-2.056,6.758,6.758,0,0,1,5.426,2.363A8.265,8.265,0,0,1,557.613,280.586Z" transform="translate(-312.164 -272.272)" fill="#fff"/></g></g><path d="M14.838-13.986H11.487L7.363-25.747v11.761H2.53V-33.77H8.845L13.2-21.462,17.513-33.77H23.8v19.784H18.93V-25.747Zm20.525-5.059h4.672A6,6,0,0,1,37.844-15.1a7.178,7.178,0,0,1-4.608,1.434,7.11,7.11,0,0,1-5.349-2.094,7.538,7.538,0,0,1-2.03-5.478A7.485,7.485,0,0,1,27.92-26.7a6.989,6.989,0,0,1,5.22-2.11,6.611,6.611,0,0,1,5.123,2A7.5,7.5,0,0,1,40.1-21.526v1.257H30.723q.258,2.674,2.513,2.674A1.959,1.959,0,0,0,35.363-19.045ZM33.14-24.877a2.286,2.286,0,0,0-2.32,2.094H35.2A2.365,2.365,0,0,0,34.59-24.3,1.9,1.9,0,0,0,33.14-24.877Zm17.818,5.832H55.63A6,6,0,0,1,53.439-15.1a7.178,7.178,0,0,1-4.608,1.434,7.11,7.11,0,0,1-5.349-2.094,7.538,7.538,0,0,1-2.03-5.478A7.485,7.485,0,0,1,43.515-26.7a6.989,6.989,0,0,1,5.22-2.11,6.611,6.611,0,0,1,5.123,2,7.5,7.5,0,0,1,1.837,5.284v1.257H46.318q.258,2.674,2.513,2.674A1.959,1.959,0,0,0,50.958-19.045Zm-2.223-5.832a2.286,2.286,0,0,0-2.32,2.094H50.8a2.365,2.365,0,0,0-.612-1.514A1.9,1.9,0,0,0,48.735-24.877Zm9.956,5.9v-5.574H56.564v-3.931h2.127v-4h4.994v4h3.029v3.931H63.685v4.833q0,1.611,1.547,1.611a4,4,0,0,0,1.611-.322v4.285a7.134,7.134,0,0,1-2.8.451Q58.691-13.7,58.691-18.981Z" transform="translate(390.453 309.338)" fill="#2a9cff"/></g></g></svg>