<svg width="366" height="90" viewBox="0 0 366 90" fill="none" xmlns="http://www.w3.org/2000/svg">
<path fill-rule="evenodd" clip-rule="evenodd" d="M19 29.0805L26.9437 22H41.0563L49 29.0805L34.0423 43L19 29.0805ZM27.831 24.1724H32.1409L41.3521 33.1437L34 39.9828L22.2958 29.1207L27.831 24.1724Z" fill="#1161FE"/>
<path d="M58.971 36.57C59.1822 37.1996 59.6031 37.7377 60.1633 38.0942C60.7236 38.4508 61.3892 38.6043 62.049 38.529C63.572 38.529 64.628 37.875 64.628 36.694C64.628 35.794 64.037 35.388 62.828 35.11L59.16 34.332C56.36 33.712 54.249 32.251 54.249 29.018C54.249 25.288 57.357 22.832 61.585 22.832C66.247 22.832 68.885 25.38 69.418 28.675H64.536C64.3236 28.0852 63.9218 27.5823 63.3933 27.2451C62.8648 26.9078 62.2395 26.7552 61.615 26.811C60.186 26.811 59.222 27.432 59.222 28.489C59.222 29.329 59.813 29.795 60.806 30.013L64.536 30.882C67.8 31.659 69.604 33.43 69.604 36.382C69.604 40.299 66.31 42.537 62.145 42.537C57.576 42.537 54.467 40.33 53.783 36.568L58.971 36.57Z" fill="white"/>
<path d="M84.086 42.229H79.206V41.015C78.724 41.5139 78.1435 41.907 77.5013 42.1694C76.8592 42.4318 76.1694 42.5576 75.476 42.539C72.398 42.539 70.565 40.518 70.565 37.41V28.243H75.414V36.262C75.414 37.443 75.972 38.283 77.214 38.283C77.6717 38.2838 78.1165 38.131 78.4771 37.8491C78.8377 37.5672 79.0933 37.1724 79.203 36.728V28.241H84.083L84.086 42.229Z" fill="white"/>
<path d="M90.582 47.17H85.702V28.2461H90.582V29.366C91.0345 28.9121 91.5722 28.552 92.1643 28.3066C92.7563 28.0612 93.3911 27.9352 94.032 27.936C98.072 27.936 100.279 31.23 100.279 35.236C100.279 39.215 98.072 42.536 94.032 42.536C93.3911 42.5367 92.7564 42.4107 92.1644 42.1653C91.5723 41.9199 91.0346 41.5599 90.582 41.1061V47.17ZM90.582 37.07C90.7823 37.4658 91.0891 37.7978 91.4679 38.0286C91.8467 38.2593 92.2825 38.3797 92.726 38.376C94.404 38.376 95.399 37.041 95.399 35.237C95.399 33.433 94.405 32.066 92.726 32.066C92.2829 32.0646 91.8481 32.1858 91.4697 32.4164C91.0912 32.6469 90.784 32.9777 90.582 33.372V37.07Z" fill="white"/>
<path d="M114.262 37.346C113.762 40.577 111.341 42.537 107.704 42.537C103.416 42.537 100.588 39.584 100.588 35.237C100.588 30.917 103.572 27.937 107.612 27.937C111.9 27.937 114.325 30.796 114.325 34.961V36.173H105.283C105.438 37.851 106.309 38.752 107.707 38.752C108.159 38.7959 108.611 38.6797 108.986 38.4238C109.361 38.1679 109.634 37.7886 109.757 37.352L114.262 37.346ZM105.374 33.741H109.6C109.609 33.4758 109.565 33.2114 109.468 32.9641C109.372 32.7167 109.227 32.4916 109.04 32.3024C108.854 32.1133 108.632 31.9641 108.386 31.8639C108.14 31.7638 107.876 31.7148 107.611 31.72C107.055 31.723 106.52 31.9308 106.107 32.3036C105.695 32.6764 105.434 33.1882 105.375 33.741H105.374Z" fill="white"/>
<path d="M124.584 32.872C123.958 32.5617 123.264 32.4122 122.565 32.437C122.03 32.3655 121.487 32.4855 121.032 32.7757C120.577 33.066 120.239 33.5078 120.078 34.023V42.228H115.198V28.245H120.078V29.489C120.442 28.9936 120.92 28.5936 121.472 28.3231C122.024 28.0527 122.634 27.9199 123.248 27.936C123.707 27.9168 124.164 28.0016 124.585 28.184L124.584 32.872Z" fill="white"/>
<path d="M125.548 22.025H130.428V29.454C130.916 28.9547 131.502 28.5616 132.149 28.2995C132.796 28.0375 133.49 27.912 134.188 27.931C137.295 27.931 139.13 29.95 139.13 33.059V42.226H134.281V34.239C134.315 33.983 134.293 33.7226 134.215 33.4762C134.138 33.2299 134.007 33.0036 133.832 32.8136C133.657 32.6237 133.442 32.4746 133.203 32.377C132.964 32.2794 132.706 32.2357 132.448 32.249C131.987 32.2315 131.535 32.3736 131.167 32.6513C130.799 32.929 130.538 33.3252 130.429 33.773V42.226H125.549L125.548 22.025Z" fill="white"/>
<path d="M153.614 37.346C153.114 40.577 150.693 42.537 147.056 42.537C142.767 42.537 139.938 39.584 139.938 35.237C139.938 30.917 142.923 27.937 146.964 27.937C151.252 27.937 153.677 30.796 153.677 34.961V36.173H144.632C144.787 37.851 145.658 38.752 147.056 38.752C147.508 38.7961 147.96 38.68 148.335 38.4241C148.71 38.1682 148.983 37.7887 149.106 37.352L153.614 37.346ZM144.726 33.741H148.951C148.96 33.4758 148.915 33.2114 148.819 32.9642C148.722 32.7169 148.577 32.4918 148.39 32.3027C148.204 32.1136 147.981 31.9644 147.736 31.8642C147.49 31.764 147.226 31.715 146.961 31.72C146.404 31.7227 145.868 31.9311 145.456 32.305C145.043 32.679 144.783 33.1922 144.726 33.746V33.741Z" fill="white"/>
<path d="M163.935 32.873C163.308 32.5626 162.613 32.4131 161.914 32.438C161.379 32.3667 160.836 32.4868 160.381 32.777C159.926 33.0672 159.588 33.5089 159.427 34.024V42.229H154.545V28.246H159.425V29.49C159.789 28.9946 160.267 28.5946 160.819 28.3241C161.371 28.0537 161.981 27.9209 162.595 27.937C163.053 27.9187 163.51 28.0035 163.931 28.185L163.935 32.873Z" fill="white"/>
<path d="M171.114 42.539C166.888 42.539 163.965 39.555 163.965 35.239C163.965 30.923 166.887 27.939 171.114 27.939C175.373 27.939 178.263 30.923 178.263 35.239C178.263 39.555 175.371 42.539 171.114 42.539ZM171.114 31.939C169.622 31.939 168.784 33.306 168.784 35.233C168.784 37.16 169.622 38.497 171.114 38.497C172.637 38.497 173.476 37.16 173.476 35.233C173.476 33.306 172.636 31.933 171.114 31.933V31.939Z" fill="white"/>
<path d="M180.248 38.354C180.646 38.3473 181.037 38.4589 181.372 38.6746C181.707 38.8903 181.97 39.2005 182.129 39.5659C182.287 39.9312 182.334 40.3354 182.262 40.7272C182.191 41.119 182.005 41.4808 181.728 41.7669C181.451 42.053 181.095 42.2505 180.706 42.3345C180.317 42.4184 179.911 42.385 179.541 42.2384C179.171 42.0919 178.852 41.8388 178.626 41.5112C178.399 41.1836 178.275 40.7962 178.269 40.398C178.268 40.3837 178.268 40.3693 178.269 40.355C178.265 40.0963 178.312 39.8394 178.407 39.5989C178.502 39.3583 178.644 39.1389 178.824 38.9532C179.004 38.7675 179.219 38.619 179.457 38.5164C179.694 38.4137 179.949 38.3589 180.208 38.355L180.248 38.354Z" fill="white"/>
<path d="M189.582 27.931C193.344 27.931 195.674 30.169 196.082 33.431H191.357C191.301 33.0087 191.087 32.6232 190.758 32.3522C190.429 32.0811 190.01 31.9446 189.585 31.97C188.218 31.97 187.347 33.243 187.347 35.234C187.347 37.225 188.217 38.465 189.585 38.465C190.007 38.497 190.425 38.367 190.754 38.1015C191.083 37.836 191.299 37.455 191.357 37.036H196.082C195.682 40.267 193.347 42.536 189.582 42.536C185.382 42.536 182.527 39.552 182.527 35.236C182.527 30.92 185.386 27.931 189.582 27.931Z" fill="white"/>
<path d="M203.413 42.539C199.187 42.539 196.264 39.555 196.264 35.239C196.264 30.923 199.186 27.939 203.413 27.939C207.672 27.939 210.562 30.923 210.562 35.239C210.562 39.555 207.671 42.539 203.413 42.539ZM203.413 31.939C201.923 31.939 201.083 33.306 201.083 35.233C201.083 37.16 201.923 38.497 203.413 38.497C204.937 38.497 205.775 37.16 205.775 35.233C205.775 33.306 204.935 31.933 203.413 31.933V31.939Z" fill="white"/>
<path d="M228.123 27.931C231.045 27.931 232.848 29.92 232.848 33.059V42.226H227.968V34.242C227.968 33.061 227.468 32.22 226.384 32.22C225.957 32.221 225.545 32.3704 225.216 32.6427C224.888 32.9149 224.664 33.293 224.584 33.712V42.228H219.736V34.24C219.736 33.059 219.236 32.218 218.152 32.218C217.724 32.2145 217.309 32.3623 216.98 32.6353C216.65 32.9083 216.428 33.289 216.352 33.71V42.226H211.472V28.234H216.352V29.384C216.813 28.8961 217.373 28.513 217.995 28.2609C218.617 28.0089 219.286 27.8936 219.957 27.923C220.685 27.8926 221.409 28.0278 222.077 28.3185C222.745 28.6092 223.338 29.0477 223.811 29.601C224.379 29.0453 225.055 28.6107 225.796 28.3237C226.537 28.0366 227.329 27.903 228.123 27.931V27.931Z" fill="white"/>
<path d="M54.04 56.393H64.84V58.332H60.54V69.34H58.345V58.332H54.045L54.04 56.393Z" fill="#1161FE"/>
<path d="M66.103 55.637H68.212V60.866C68.5332 60.5158 68.9244 60.2369 69.3602 60.0474C69.796 59.8579 70.2668 59.762 70.742 59.766C71.1984 59.7396 71.6549 59.8128 72.0801 59.9807C72.5052 60.1486 72.8887 60.4071 73.2038 60.7382C73.5189 61.0693 73.7581 61.4651 73.9048 61.898C74.0514 62.3309 74.102 62.7906 74.053 63.245V69.337H71.943V63.602C71.943 62.442 71.375 61.683 70.173 61.683C69.7248 61.6749 69.287 61.8187 68.931 62.091C68.5749 62.3634 68.3215 62.7483 68.212 63.183V69.337H66.103V55.637Z" fill="#1161FE"/>
<path d="M83.584 66.431C83.4492 67.3561 82.9658 68.1947 82.2327 68.775C81.4996 69.3552 80.5724 69.6332 79.641 69.552C77.026 69.552 75.213 67.57 75.213 64.681C75.213 61.881 77.048 59.769 79.598 59.769C82.234 59.769 83.668 61.645 83.668 64.386V65.146H77.281C77.344 66.79 78.291 67.782 79.642 67.782C80.0814 67.8314 80.5241 67.7227 80.8906 67.4753C81.2571 67.2279 81.5235 66.858 81.642 66.432L83.584 66.431ZM77.344 63.606H81.581C81.6034 63.3379 81.5689 63.0682 81.4797 62.8144C81.3905 62.5607 81.2487 62.3286 81.0635 62.1335C80.8783 61.9384 80.654 61.7847 80.4052 61.6824C80.1565 61.5801 79.8889 61.5316 79.62 61.54C79.0493 61.5319 78.4967 61.7407 78.0739 62.1241C77.6511 62.5076 77.3896 63.0372 77.342 63.606H77.344Z" fill="#1161FE"/>
<path d="M98.387 65.629C98.387 68.054 96.7 69.34 94.001 69.34H89.044V56.393H93.578C96.278 56.393 97.963 57.593 97.963 59.915C98.0017 60.4904 97.8601 61.0636 97.5579 61.5549C97.2557 62.0461 96.808 62.431 96.277 62.656C96.8949 62.8695 97.4306 63.2709 97.809 63.804C98.1873 64.3371 98.3895 64.9753 98.387 65.629V65.629ZM93.558 61.829C95.058 61.829 95.858 61.26 95.858 60.037C95.858 58.814 95.058 58.287 93.558 58.287H91.176V61.831H93.558V61.829ZM91.176 67.44H93.96C95.435 67.44 96.236 66.702 96.236 65.54C96.236 64.359 95.436 63.64 93.96 63.64H91.176V67.44Z" fill="white"/>
<path d="M105.093 62.107C104.716 61.8873 104.285 61.7782 103.849 61.792C103.408 61.7722 102.974 61.9135 102.629 62.1894C102.284 62.4653 102.051 62.8571 101.973 63.292V69.343H99.864V59.982H101.973V60.951C102.183 60.5852 102.488 60.2826 102.855 60.0748C103.222 59.8671 103.638 59.7618 104.06 59.77C104.412 59.7574 104.764 59.8148 105.094 59.939L105.093 62.107Z" fill="white"/>
<path d="M109.837 69.553C107.201 69.553 105.388 67.531 105.388 64.661C105.388 61.791 107.201 59.769 109.837 59.769C112.473 59.769 114.286 61.793 114.286 64.661C114.286 67.529 112.472 69.553 109.837 69.553ZM109.837 61.583C108.319 61.583 107.496 62.889 107.496 64.661C107.496 66.433 108.319 67.74 109.837 67.74C111.355 67.74 112.178 66.433 112.178 64.661C112.178 62.889 111.355 61.582 109.837 61.582V61.583Z" fill="white"/>
<path d="M120.782 69.341V68.813C120.108 69.2962 119.292 69.5423 118.463 69.513C116.544 69.513 114.963 68.375 114.963 66.459C114.963 64.687 116.544 63.443 118.61 63.443C119.371 63.4418 120.12 63.6379 120.783 64.012V63.254C120.795 63.0201 120.756 62.7863 120.669 62.5689C120.581 62.3516 120.448 62.1558 120.277 61.9953C120.107 61.8348 119.903 61.7133 119.681 61.6394C119.458 61.5654 119.223 61.5407 118.99 61.567C118.648 61.5304 118.304 61.6105 118.014 61.7942C117.723 61.9779 117.503 62.2545 117.39 62.579H115.36C115.536 61.7504 116.003 61.0121 116.676 60.4977C117.349 59.9833 118.184 59.7266 119.03 59.774C121.391 59.774 122.783 61.083 122.783 63.211V69.346L120.782 69.341ZM120.782 66.073C120.581 65.7529 120.295 65.4947 119.957 65.3272C119.618 65.1596 119.239 65.0893 118.863 65.124C117.917 65.124 116.924 65.524 116.924 66.453C116.924 67.399 117.914 67.802 118.863 67.802C119.239 67.8369 119.618 67.7669 119.956 67.5997C120.295 67.4325 120.581 67.1748 120.782 66.855V66.073Z" fill="white"/>
<path d="M130.671 68.537C130.367 68.8626 129.997 69.1208 129.587 69.2951C129.177 69.4694 128.735 69.5559 128.289 69.549C125.548 69.549 123.944 67.356 123.944 64.657C123.944 61.979 125.544 59.765 128.289 59.765C128.735 59.7582 129.177 59.8447 129.587 60.019C129.997 60.1932 130.367 60.4515 130.671 60.777V55.637H132.78V69.337H130.671V68.537ZM130.671 62.886C130.481 62.5123 130.192 62.1983 129.835 61.9788C129.479 61.7592 129.068 61.6427 128.649 61.642C127.025 61.642 126.056 62.928 126.056 64.656C126.056 66.384 127.025 67.672 128.649 67.672C129.068 67.6713 129.479 67.5547 129.835 67.3351C130.192 67.1156 130.481 66.8017 130.671 66.428V62.886Z" fill="white"/>
<path d="M138.432 59.768C139.365 59.6839 140.294 59.964 141.025 60.5497C141.756 61.1354 142.233 61.9812 142.354 62.91H140.243C140.158 62.5097 139.928 62.155 139.597 61.9139C139.266 61.6727 138.858 61.562 138.451 61.603C137.038 61.603 136.173 62.889 136.173 64.659C136.173 66.429 137.037 67.713 138.451 67.713C138.858 67.7542 139.266 67.6437 139.597 67.4024C139.928 67.1612 140.158 66.8064 140.243 66.406H142.352C142.231 67.3348 141.754 68.1806 141.023 68.7663C140.292 69.352 139.363 69.6321 138.43 69.548C135.9 69.548 134.065 67.566 134.065 64.656C134.065 61.746 135.902 59.768 138.432 59.768Z" fill="white"/>
<path d="M148.765 69.341V68.813C148.091 69.2962 147.275 69.5423 146.446 69.513C144.528 69.513 142.946 68.375 142.946 66.459C142.946 64.687 144.527 63.443 146.593 63.443C147.354 63.4418 148.103 63.6379 148.766 64.012V63.254C148.778 63.0201 148.739 62.7863 148.652 62.5689C148.564 62.3516 148.431 62.1558 148.26 61.9953C148.09 61.8348 147.886 61.7133 147.664 61.6394C147.441 61.5654 147.206 61.5407 146.973 61.567C146.631 61.5304 146.287 61.6105 145.997 61.7942C145.706 61.9779 145.486 62.2545 145.373 62.579H143.349C143.525 61.7504 143.992 61.0121 144.665 60.4977C145.338 59.9833 146.173 59.7266 147.019 59.774C149.38 59.774 150.772 61.083 150.772 63.211V69.346L148.765 69.341ZM148.765 66.073C148.564 65.7529 148.278 65.4947 147.94 65.3272C147.601 65.1596 147.222 65.0893 146.846 65.124C145.899 65.124 144.907 65.524 144.907 66.453C144.907 67.399 145.897 67.802 146.846 67.802C147.222 67.8367 147.6 67.7665 147.939 67.5994C148.278 67.4322 148.564 67.1746 148.765 66.855V66.073Z" fill="white"/>
<path d="M154.079 66.641C154.207 67.0201 154.461 67.344 154.799 67.5589C155.136 67.7737 155.537 67.8666 155.935 67.822C156.904 67.822 157.535 67.442 157.535 66.702C157.535 66.196 157.218 65.922 156.435 65.733L154.494 65.268C153.165 64.951 152.175 64.234 152.175 62.696C152.175 61.009 153.675 59.765 155.719 59.765C157.914 59.765 159.155 60.82 159.472 62.527H157.412C157.289 62.1854 157.052 61.8965 156.741 61.7084C156.431 61.5202 156.065 61.4442 155.705 61.493C154.967 61.493 154.205 61.831 154.205 62.57C154.205 62.991 154.505 63.27 155.175 63.434L157.158 63.897C158.758 64.277 159.558 65.184 159.558 66.555C159.558 68.41 158.018 69.549 155.91 69.549C153.715 69.549 152.199 68.449 151.925 66.639L154.079 66.641Z" fill="white"/>
<path d="M161.438 61.728H159.961V59.978H161.438V57.468H163.547V59.978H165.656V61.728H163.547V66.578C163.531 66.7067 163.541 66.8373 163.576 66.9622C163.61 67.0872 163.669 67.204 163.749 67.3062C163.829 67.4084 163.928 67.4938 164.041 67.5576C164.154 67.6214 164.278 67.6623 164.407 67.678C164.493 67.6888 164.581 67.6888 164.667 67.678C165.095 67.6673 165.511 67.5356 165.867 67.298V69.217C165.376 69.4598 164.833 69.5756 164.286 69.554C163.911 69.5982 163.53 69.5586 163.172 69.4381C162.814 69.3175 162.487 69.1191 162.214 68.8569C161.942 68.5947 161.731 68.2754 161.597 67.922C161.463 67.5686 161.409 67.1898 161.439 66.813L161.438 61.728Z" fill="white"/>
<path d="M176.641 56.183C177.898 56.0992 179.14 56.4938 180.118 57.2877C181.095 58.0815 181.737 59.2159 181.913 60.463H179.761C179.583 59.7799 179.176 59.1786 178.608 58.7599C178.04 58.3411 177.345 58.1304 176.64 58.163C174.362 58.163 172.97 60.145 172.97 62.863C172.97 65.563 174.34 67.563 176.64 67.563C177.348 67.5954 178.045 67.3824 178.613 66.96C179.182 66.5377 179.588 65.9318 179.761 65.245H181.913C181.739 66.4947 181.099 67.6324 180.121 68.4299C179.143 69.2274 177.9 69.6257 176.641 69.545C173.31 69.545 170.758 66.845 170.758 62.861C170.758 58.877 173.308 56.183 176.641 56.183Z" fill="white"/>
<path d="M183.245 55.637H185.354V60.866C185.675 60.5157 186.066 60.2368 186.502 60.0473C186.938 59.8578 187.409 59.762 187.884 59.766C188.34 59.7395 188.797 59.8128 189.222 59.9807C189.647 60.1486 190.03 60.4071 190.345 60.7382C190.66 61.0694 190.9 61.4651 191.046 61.8981C191.193 62.331 191.243 62.7906 191.194 63.245V69.337H189.085V63.602C189.085 62.442 188.517 61.683 187.315 61.683C186.867 61.6747 186.429 61.8184 186.073 62.0908C185.717 62.3632 185.463 62.7482 185.354 63.183V69.337H183.245V55.637Z" fill="white"/>
<path d="M198.215 69.341V68.813C197.54 69.296 196.724 69.5422 195.894 69.513C193.976 69.513 192.394 68.375 192.394 66.459C192.394 64.687 193.975 63.443 196.041 63.443C196.802 63.4416 197.55 63.6377 198.213 64.012V63.254C198.225 63.0201 198.186 62.7865 198.099 62.5692C198.011 62.3519 197.878 62.1562 197.707 61.9957C197.537 61.8352 197.334 61.7137 197.111 61.6397C196.889 61.5657 196.654 61.5409 196.421 61.567C196.079 61.5304 195.735 61.6105 195.445 61.7942C195.154 61.9779 194.934 62.2545 194.821 62.579H192.799C192.975 61.7506 193.442 61.0126 194.114 60.4981C194.787 59.9837 195.621 59.7269 196.467 59.774C198.829 59.774 200.221 61.083 200.221 63.211V69.346L198.215 69.341ZM198.215 66.073C198.014 65.7529 197.728 65.4947 197.39 65.3272C197.051 65.1596 196.672 65.0893 196.296 65.124C195.349 65.124 194.357 65.524 194.357 66.453C194.357 67.399 195.348 67.802 196.296 67.802C196.672 67.8367 197.05 67.7665 197.389 67.5994C197.728 67.4322 198.014 67.1746 198.215 66.855V66.073Z" fill="white"/>
<path d="M202.032 59.983H204.141V60.869C204.462 60.5185 204.853 60.2394 205.289 60.0499C205.725 59.8604 206.196 59.7647 206.671 59.769C207.127 59.7425 207.584 59.8158 208.009 59.9837C208.434 60.1516 208.817 60.4101 209.132 60.7412C209.448 61.0724 209.687 61.4681 209.833 61.9011C209.98 62.334 210.03 62.7936 209.981 63.248V69.342H207.872V63.607C207.872 62.447 207.303 61.688 206.102 61.688C205.654 61.6797 205.216 61.8234 204.86 62.0958C204.504 62.3682 204.25 62.7532 204.141 63.188V69.345H202.032V59.983Z" fill="white"/>
<path d="M211.794 59.983H213.903V60.869C214.224 60.5187 214.615 60.2398 215.051 60.0503C215.487 59.8608 215.958 59.765 216.433 59.769C216.889 59.7426 217.346 59.8158 217.771 59.9837C218.196 60.1516 218.58 60.4101 218.895 60.7412C219.21 61.0723 219.449 61.4681 219.596 61.901C219.742 62.3339 219.793 62.7936 219.744 63.248V69.342H217.633V63.607C217.633 62.447 217.062 61.688 215.861 61.688C215.413 61.6797 214.975 61.8234 214.619 62.0958C214.263 62.3682 214.009 62.7532 213.9 63.188V69.345H211.791L211.794 59.983Z" fill="white"/>
<path d="M229.274 66.431C229.139 67.3561 228.656 68.1947 227.923 68.775C227.19 69.3552 226.262 69.6332 225.331 69.552C222.716 69.552 220.903 67.57 220.903 64.681C220.903 61.881 222.738 59.769 225.289 59.769C227.925 59.769 229.359 61.645 229.359 64.386V65.146H222.972C223.035 66.79 223.984 67.782 225.334 67.782C225.774 67.8318 226.216 67.7233 226.583 67.4758C226.95 67.2284 227.216 66.8582 227.334 66.432L229.274 66.431ZM223.034 63.606H227.271C227.294 63.3379 227.26 63.068 227.17 62.8141C227.081 62.5602 226.94 62.328 226.754 62.1328C226.569 61.9377 226.345 61.7839 226.096 61.6818C225.847 61.5796 225.579 61.5313 225.31 61.54C224.739 61.5317 224.187 61.7404 223.764 62.1239C223.341 62.5074 223.079 63.0371 223.032 63.606H223.034Z" fill="white"/>
<path d="M232.734 69.337H230.62V55.637H232.729L232.734 69.337Z" fill="white"/>
<path d="M243.826 57.533C243.518 57.3341 243.159 57.2298 242.792 57.233C242.603 57.2182 242.413 57.2457 242.236 57.3134C242.058 57.3811 241.898 57.4874 241.767 57.6246C241.636 57.7617 241.537 57.9263 241.477 58.1064C241.418 58.2865 241.399 58.4777 241.422 58.666V59.973H243.468V61.723H241.422V69.335H239.357V61.723H237.734V59.973H239.357V58.518C239.326 58.1049 239.385 57.69 239.529 57.3014C239.672 56.9129 239.898 56.5597 240.19 56.2658C240.481 55.9719 240.833 55.7441 241.221 55.5978C241.608 55.4516 242.023 55.3902 242.436 55.418C242.913 55.3979 243.388 55.484 243.828 55.67L243.826 57.533Z" fill="#1161FE"/>
<path d="M248.253 69.553C245.617 69.553 243.804 67.531 243.804 64.661C243.804 61.791 245.617 59.769 248.253 59.769C250.889 59.769 252.702 61.793 252.702 64.661C252.702 67.529 250.89 69.553 248.253 69.553ZM248.253 61.583C246.735 61.583 245.912 62.889 245.912 64.661C245.912 66.433 246.735 67.74 248.253 67.74C249.771 67.74 250.594 66.433 250.594 64.661C250.594 62.889 249.771 61.582 248.253 61.582V61.583Z" fill="#1161FE"/>
<path d="M259.218 62.107C258.841 61.8872 258.41 61.778 257.974 61.792C257.533 61.7727 257.099 61.914 256.754 62.1899C256.41 62.4657 256.176 62.8573 256.098 63.292V69.343H253.993V59.982H256.093V60.951C256.304 60.585 256.608 60.2824 256.976 60.0746C257.343 59.8668 257.76 59.7616 258.182 59.77C258.534 59.7574 258.885 59.8149 259.214 59.939L259.218 62.107Z" fill="#1161FE"/>
<path d="M273.939 65.629C273.939 68.054 272.252 69.34 269.553 69.34H264.597V56.393H269.131C271.831 56.393 273.516 57.593 273.516 59.915C273.555 60.4904 273.413 61.0636 273.111 61.5549C272.809 62.0461 272.361 62.431 271.83 62.656C272.448 62.8699 272.983 63.2714 273.361 63.8045C273.739 64.3375 273.941 64.9754 273.939 65.629V65.629ZM269.107 61.829C270.607 61.829 271.407 61.26 271.407 60.037C271.407 58.814 270.607 58.287 269.107 58.287H266.724V61.831H269.104L269.107 61.829ZM266.726 67.44H269.51C270.986 67.44 271.788 66.702 271.788 65.54C271.788 64.359 270.988 63.64 269.51 63.64H266.726V67.44Z" fill="#1161FE"/>
<path d="M277.522 69.337H275.413V55.637H277.522V69.337Z" fill="#1161FE"/>
<path d="M283.258 69.553C280.622 69.553 278.809 67.531 278.809 64.661C278.809 61.791 280.624 59.769 283.258 59.769C285.892 59.769 287.707 61.793 287.707 64.661C287.707 67.529 285.895 69.553 283.258 69.553ZM283.258 61.583C281.74 61.583 280.917 62.889 280.917 64.661C280.917 66.433 281.74 67.74 283.258 67.74C284.776 67.74 285.599 66.433 285.599 64.661C285.599 62.889 284.776 61.582 283.258 61.582V61.583Z" fill="#1161FE"/>
<path d="M292.769 59.768C293.702 59.6837 294.631 59.9637 295.363 60.5494C296.094 61.1351 296.57 61.9811 296.691 62.91H294.582C294.497 62.5098 294.267 62.1551 293.936 61.9139C293.605 61.6727 293.197 61.562 292.79 61.603C291.378 61.603 290.514 62.889 290.514 64.659C290.514 66.429 291.378 67.713 292.79 67.713C293.197 67.7543 293.605 67.6437 293.936 67.4025C294.267 67.1613 294.497 66.8064 294.582 66.406H296.691C296.57 67.335 296.094 68.1809 295.363 68.7666C294.631 69.3524 293.702 69.6324 292.769 69.548C290.239 69.548 288.404 67.566 288.404 64.656C288.404 61.746 290.237 59.768 292.769 59.768Z" fill="#1161FE"/>
<path d="M300.868 65.355L300.004 66.239V69.339H297.894V55.637H300.004V63.818L303.672 59.981H306.372L302.385 64.029L306.518 69.343H303.967L300.868 65.355Z" fill="#1161FE"/>
<path d="M310.755 59.768C311.688 59.6839 312.618 59.964 313.349 60.5496C314.08 61.1353 314.556 61.9811 314.678 62.91H312.569C312.483 62.5098 312.253 62.1552 311.922 61.9141C311.591 61.6729 311.183 61.5622 310.776 61.603C309.364 61.603 308.5 62.889 308.5 64.659C308.5 66.429 309.364 67.713 310.776 67.713C311.183 67.7541 311.592 67.6434 311.922 67.4023C312.253 67.1611 312.483 66.8064 312.569 66.406H314.678C314.557 67.335 314.08 68.181 313.349 68.7667C312.618 69.3524 311.688 69.6324 310.755 69.548C308.225 69.548 306.39 67.566 306.39 64.656C306.39 61.746 308.223 59.768 310.755 59.768Z" fill="#1161FE"/>
<path d="M315.88 55.637H317.989V60.866C318.31 60.5158 318.701 60.2369 319.137 60.0474C319.573 59.8579 320.044 59.762 320.519 59.766C320.975 59.7396 321.432 59.8128 321.857 59.9807C322.282 60.1486 322.666 60.4071 322.981 60.7382C323.296 61.0693 323.535 61.4651 323.682 61.898C323.828 62.3309 323.879 62.7906 323.83 63.245V69.337H321.721V63.602C321.721 62.442 321.152 61.683 319.949 61.683C319.501 61.6749 319.063 61.8187 318.707 62.091C318.351 62.3634 318.097 62.7483 317.988 63.183V69.337H315.879L315.88 55.637Z" fill="#1161FE"/>
<path d="M330.853 69.341V68.813C330.178 69.296 329.363 69.5421 328.534 69.513C326.615 69.513 325.034 68.375 325.034 66.459C325.034 64.687 326.615 63.443 328.681 63.443C329.442 63.4419 330.191 63.6379 330.854 64.012V63.254C330.866 63.0201 330.827 62.7863 330.74 62.5689C330.652 62.3516 330.519 62.1558 330.348 61.9953C330.177 61.8348 329.974 61.7133 329.752 61.6394C329.529 61.5654 329.294 61.5407 329.061 61.567C328.719 61.5304 328.375 61.6105 328.085 61.7942C327.794 61.9779 327.574 62.2545 327.461 62.579H325.438C325.614 61.7506 326.08 61.0126 326.753 60.4981C327.426 59.9837 328.26 59.7269 329.106 59.774C331.468 59.774 332.86 61.083 332.86 63.211V69.346L330.853 69.341ZM330.853 66.073C330.652 65.7529 330.366 65.4947 330.028 65.3272C329.689 65.1596 329.31 65.0893 328.934 65.124C327.987 65.124 326.995 65.524 326.995 66.453C326.995 67.399 327.985 67.802 328.934 67.802C329.31 67.8367 329.688 67.7665 330.027 67.5994C330.366 67.4322 330.652 67.1746 330.853 66.855V66.073Z" fill="#1161FE"/>
<path d="M335.723 58.439C335.469 58.4347 335.223 58.3555 335.014 58.2115C334.805 58.0674 334.644 57.8648 334.55 57.6293C334.456 57.3937 334.433 57.1356 334.486 56.8874C334.538 56.6392 334.662 56.4119 334.843 56.2342C335.024 56.0564 335.253 55.9361 335.503 55.8883C335.752 55.8405 336.009 55.8674 336.243 55.9655C336.477 56.0637 336.677 56.2288 336.817 56.4401C336.957 56.6514 337.032 56.8994 337.032 57.153C337.025 57.496 336.884 57.8226 336.64 58.063C336.395 58.3033 336.066 58.4383 335.723 58.439V58.439ZM336.778 69.339H334.668V59.977H336.778V69.339Z" fill="#1161FE"/>
<path d="M338.718 59.983H340.827V60.869C341.148 60.5187 341.539 60.2398 341.975 60.0503C342.411 59.8608 342.882 59.765 343.357 59.769C343.813 59.7426 344.27 59.8158 344.695 59.9837C345.12 60.1516 345.504 60.4101 345.819 60.7412C346.134 61.0723 346.373 61.4681 346.52 61.901C346.666 62.3339 346.717 62.7936 346.668 63.248V69.342H344.559V63.607C344.559 62.447 343.99 61.688 342.789 61.688C342.341 61.6797 341.903 61.8234 341.547 62.0958C341.191 62.3682 340.937 62.7532 340.828 63.188V69.345H338.719V59.983H338.718Z" fill="#1161FE"/>
<path d="M235.876 28.046H239.644V39.164H246.082V42.417H235.876V28.046Z" fill="#1161FE"/>
<path d="M256.662 38.747C256.287 41.18 254.462 42.655 251.722 42.655C250.997 42.6886 250.273 42.5681 249.599 42.3017C248.924 42.0352 248.313 41.6287 247.806 41.1091C247.3 40.5895 246.909 39.9684 246.66 39.2869C246.411 38.6053 246.31 37.8787 246.362 37.155C246.32 36.4398 246.427 35.7237 246.676 35.0517C246.924 34.3796 247.308 33.7662 247.805 33.2498C248.302 32.7333 248.9 32.3251 249.561 32.0507C250.223 31.7763 250.935 31.6416 251.651 31.655C254.882 31.655 256.708 33.807 256.708 36.946V37.858H249.896C250.013 39.122 250.668 39.801 251.722 39.801C252.062 39.8345 252.403 39.7475 252.686 39.5553C252.968 39.363 253.174 39.0777 253.268 38.749L256.662 38.747ZM249.967 36.031H253.152C253.165 35.6414 253.023 35.2625 252.757 34.9773C252.492 34.6922 252.124 34.5241 251.734 34.51C251.707 34.5085 251.681 34.5085 251.654 34.51C251.235 34.5108 250.832 34.666 250.52 34.946C250.209 35.2259 250.012 35.6108 249.967 36.027V36.031Z" fill="#1161FE"/>
<path d="M263.285 42.418V41.881C262.543 42.3894 261.656 42.6435 260.757 42.605C258.674 42.605 256.92 41.435 256.92 39.212C256.92 37.176 258.675 35.865 260.97 35.865C261.779 35.8574 262.577 36.0586 263.286 36.449V35.769C263.272 35.4727 263.158 35.1898 262.964 34.9656C262.77 34.7413 262.506 34.5886 262.215 34.532C261.924 34.4753 261.622 34.5179 261.358 34.653C261.094 34.788 260.883 35.0078 260.758 35.277H257.294C257.594 33.241 259.401 31.626 262.114 31.626C265.114 31.626 266.814 33.218 266.814 35.956V42.417L263.285 42.418ZM263.285 38.861C263.112 38.617 262.878 38.422 262.607 38.2948C262.337 38.1676 262.037 38.1125 261.739 38.135C261.015 38.135 260.289 38.435 260.289 39.141C260.289 39.867 261.015 40.171 261.739 40.171C262.035 40.192 262.331 40.139 262.601 40.0168C262.871 39.8946 263.106 39.707 263.285 39.471V38.861Z" fill="#1161FE"/>
<path d="M274.474 40.946C274.153 41.2851 273.764 41.5523 273.332 41.7298C272.9 41.9074 272.436 41.9913 271.969 41.976C269.021 41.976 267.312 39.706 267.312 36.802C267.312 33.924 269.021 31.653 271.969 31.653C272.436 31.6323 272.903 31.7137 273.335 31.8916C273.768 32.0695 274.156 32.3396 274.474 32.683V31.883H278.101V40.896C278.101 44.596 275.831 46.373 272.624 46.373C269.816 46.373 267.804 44.992 267.424 42.557H270.958C271.052 42.9135 271.272 43.2239 271.578 43.4304C271.883 43.6369 272.253 43.7256 272.619 43.68C273.766 43.68 274.469 43.073 274.469 41.691L274.474 40.946ZM274.474 35.446C274.306 35.1745 274.072 34.9503 273.793 34.7944C273.515 34.6386 273.201 34.5561 272.882 34.555C272.601 34.5586 272.325 34.6217 272.07 34.7401C271.816 34.8585 271.589 35.0295 271.406 35.2418C271.222 35.4542 271.086 35.703 271.006 35.972C270.925 36.2409 270.903 36.5238 270.94 36.802C270.94 38.137 271.666 39.049 272.882 39.049C273.202 39.0529 273.517 38.9729 273.797 38.8169C274.076 38.6609 274.31 38.4344 274.474 38.16V35.446Z" fill="#1161FE"/>
<path d="M289.454 42.417H285.78V41.505C285.417 41.8802 284.98 42.1758 284.496 42.3732C284.013 42.5707 283.494 42.6656 282.972 42.652C282.464 42.6817 281.956 42.6008 281.483 42.4148C281.009 42.2289 280.582 41.9423 280.23 41.575C279.878 41.2077 279.61 40.7683 279.445 40.2873C279.279 39.8063 279.22 39.2951 279.272 38.789V31.889H282.923V37.927C282.923 38.818 283.344 39.448 284.281 39.448C284.626 39.4492 284.961 39.3347 285.233 39.1227C285.505 38.9108 285.698 38.6137 285.781 38.279V31.889H289.455V42.421L289.454 42.417Z" fill="#1161FE"/>
<path d="M300.41 38.747C300.036 41.18 298.21 42.655 295.471 42.655C294.746 42.6886 294.022 42.5681 293.348 42.3017C292.673 42.0352 292.062 41.6287 291.555 41.1091C291.049 40.5895 290.658 39.9684 290.409 39.2869C290.161 38.6053 290.059 37.8787 290.111 37.155C290.07 36.4398 290.176 35.7237 290.425 35.0517C290.673 34.3796 291.058 33.7662 291.554 33.2498C292.051 32.7333 292.649 32.3251 293.31 32.0507C293.972 31.7763 294.684 31.6416 295.4 31.655C298.63 31.655 300.456 33.807 300.456 36.946V37.858H293.646C293.763 39.122 294.42 39.801 295.472 39.801C295.812 39.8342 296.152 39.7471 296.435 39.5548C296.717 39.3626 296.923 39.0774 297.016 38.749L300.41 38.747ZM293.715 36.031H296.9C296.914 35.6416 296.772 35.2626 296.507 34.9774C296.241 34.6922 295.873 34.5241 295.484 34.51C295.457 34.5085 295.431 34.5085 295.404 34.51C294.985 34.5103 294.581 34.6653 294.269 34.9453C293.957 35.2253 293.76 35.6105 293.715 36.027V36.031Z" fill="#1161FE"/>
</svg>
